<?xml version="1.0" encoding="UTF-8"?>
<!-- Created with Inkscape (http://www.inkscape.org/) -->
<svg width="90" height="5" version="1.1" viewBox="0 0 23.812 1.3229" xmlns="http://www.w3.org/2000/svg">
 <path d="m23.019 0.092603c-0.47625 0-0.74083 0.18521-0.9525 0.37042-0.18521 0.13229-0.3175 0.23812-0.635 0.23812s-0.44979-0.10583-0.635-0.23812c-0.21167-0.15875-0.47625-0.37042-0.9525-0.37042s-0.74083 0.18521-0.9525 0.37042c-0.18521 0.13229-0.3175 0.23812-0.635 0.23812-0.29104 0-0.44979-0.10583-0.635-0.23812-0.21167-0.15875-0.47625-0.37042-0.9525-0.37042s-0.74083 0.18521-0.9525 0.37042c-0.18521 0.13229-0.3175 0.23812-0.635 0.23812s-0.44979-0.10583-0.635-0.23812c-0.21167-0.15875-0.47625-0.37042-0.9525-0.37042s-0.74083 0.18521-0.9525 0.37042c-0.18521 0.13229-0.3175 0.23812-0.635 0.23812-0.29104 0-0.44979-0.10583-0.635-0.23812-0.21167-0.15875-0.47625-0.37042-0.9525-0.37042-0.47625 0-0.74083 0.18521-0.9525 0.37042-0.18521 0.13229-0.3175 0.23812-0.635 0.23812-0.29104 0-0.44979-0.10583-0.635-0.23812-0.21167-0.15875-0.47625-0.37042-0.9525-0.37042s-0.74083 0.18521-0.9525 0.37042c-0.18521 0.13229-0.3175 0.23812-0.635 0.23812s-0.44979-0.10583-0.635-0.23812c-0.21167-0.15875-0.47625-0.37042-0.9525-0.37042s-0.74083 0.18521-0.9525 0.37042c-0.18521 0.13229-0.3175 0.23812-0.635 0.23812-0.29104 0-0.44979-0.10583-0.635-0.23812-0.21167-0.15875-0.47625-0.37042-0.9525-0.37042-0.15875 0-0.26458 0.10583-0.26458 0.26458s0.10583 0.26459 0.26458 0.26459c0.29104 0 0.44979 0.10583 0.635 0.23812 0.21167 0.15875 0.47625 0.37042 0.9525 0.37042s0.74083-0.18521 0.9525-0.37042c0.18521-0.13229 0.3175-0.23812 0.635-0.23812s0.44979 0.10583 0.635 0.23812c0.21167 0.15875 0.47625 0.37042 0.9525 0.37042s0.74083-0.18521 0.9525-0.37042c0.18521-0.13229 0.3175-0.23812 0.635-0.23812 0.29104 0 0.44979 0.10583 0.635 0.23812 0.21167 0.15875 0.47625 0.37042 0.9525 0.37042s0.74083-0.18521 0.9525-0.37042c0.18521-0.13229 0.3175-0.23812 0.635-0.23812 0.29104 0 0.44979 0.10583 0.635 0.23812 0.21167 0.15875 0.47625 0.37042 0.9525 0.37042s0.74083-0.18521 0.9525-0.37042c0.18521-0.13229 0.3175-0.23812 0.635-0.23812s0.44979 0.10583 0.635 0.23812c0.21167 0.15875 0.47625 0.37042 0.9525 0.37042s0.74083-0.18521 0.9525-0.37042c0.18521-0.13229 0.3175-0.23812 0.635-0.23812 0.29104 0 0.44979 0.10583 0.635 0.23812 0.21167 0.15875 0.47625 0.37042 0.9525 0.37042s0.74083-0.18521 0.9525-0.37042c0.18521-0.13229 0.3175-0.23812 0.635-0.23812s0.44979 0.10583 0.635 0.23812c0.21167 0.15875 0.47625 0.37042 0.9525 0.37042s0.74083-0.18521 0.9525-0.37042c0.18521-0.13229 0.3175-0.23812 0.635-0.23812 0.15875 0 0.26458-0.10584 0.26458-0.26459s-0.13229-0.26458-0.26458-0.26458z" fill="#f4491e" stroke-width=".26458"/>
</svg>
